<svg width="108" height="108" viewBox="0 0 108 108" fill="none" xmlns="http://www.w3.org/2000/svg"><circle cx="54" cy="54" r="54" fill="#fff"/><path fill="#DB3832" d="M55.832 50.906h2.299v19.705h-2.299z"/><path fill="#20286A" d="M52.548 50.906h2.299v19.705h-2.299z"/><path fill-rule="evenodd" clip-rule="evenodd" d="M88.746 54.208c0 18.226-15.104 33.001-33.735 33.001-15.51 0-28.575-10.239-32.517-24.184l-3.1.827c4.313 15.28 18.625 26.5 35.617 26.5 20.405 0 36.947-16.182 36.947-36.144 0-2.305-.22-4.56-.641-6.744l-3.112.83c.355 1.918.54 3.895.54 5.914z" fill="#00A0DE"/><path fill-rule="evenodd" clip-rule="evenodd" d="M87.415 45.001c-4.073-13.746-17.04-23.795-32.404-23.795-18.631 0-33.735 14.775-33.735 33.002 0 2.153.21 4.258.613 6.296l-3.108.83a35.555 35.555 0 01-.718-7.126c0-19.962 16.542-36.145 36.948-36.145 16.847 0 31.06 11.03 35.505 26.111l-3.1.827z" fill="#20286A"/><path d="M61.59 44.348l.987-.164-.987.164zm5.842-8.184l.243-.97-.023-.006-.024-.005-.196.981zm4.314 13.461l-.564-.825.564.825zm-4.497-5.527a1 1 0 00-.896 1.788l.896-1.788zM54.58 71.238l.067-.998h-.005l-.062.998zm11.1-39.75l-.515-.858.514.858zM50.043 76.19a1 1 0 10.895 1.788l-.895-1.788zm9.824 2.895a1 1 0 001.11-1.664l-1.11 1.664zm-11.341-21a1 1 0 10-1.912.586l1.912-.586zm4.886 7.308l-.304.952.304-.952zm8.301-1.047a1 1 0 00-1.414-1.414l1.414 1.414zm-1.335-31.083l.46.889-.46-.889zm.093-.022v1-1zm10.52 9.974l-.724-.689.724.69zm.011.297l-.688.725.689-.724zm-18.785 8.254l-.988.154.988-.154zm.209.17l-.07-.998.07.998zm21.758-10.743l.369.93-.369-.93zM31.518 57.592l.545.838-.545-.838zm11.378-13.413c2.87 0 4.814 1.239 6.121 2.816 1.333 1.608 2.002 3.576 2.212 4.925l1.976-.308c-.253-1.627-1.039-3.952-2.648-5.894-1.635-1.973-4.12-3.54-7.661-3.54v2zm9.599 8.755c1.867-.13 4.559-.672 6.704-1.958 1.081-.649 2.07-1.514 2.717-2.657.657-1.16.926-2.542.66-4.135l-1.972.328c.194 1.165-.008 2.08-.429 2.821-.43.759-1.124 1.4-2.005 1.928-1.779 1.067-4.128 1.56-5.813 1.677l.138 1.996zm21.321-12.671c-2.068.819-3.115 1.807-3.55 2.263l1.45 1.378c.277-.291 1.09-1.09 2.837-1.781l-.737-1.86zm-3.502 3.974c.736.7 1.362 1.676 1.566 2.572.1.438.091.815-.009 1.125-.095.296-.294.595-.69.866l1.13 1.65c.738-.504 1.223-1.158 1.464-1.903.236-.731.214-1.486.055-2.183-.313-1.372-1.194-2.678-2.138-3.576l-1.378 1.45zm.868 4.563a.212.212 0 01.107-.033c.025 0 .014.006-.042-.018-.124-.055-.3-.187-.47-.373l-1.48 1.344c.275.303.672.653 1.15.862.498.217 1.205.32 1.864-.132l-1.13-1.65zm-.404-.424c-.17-.188-.35-.453-.566-.81-.189-.31-.457-.784-.696-1.166-.503-.806-1.195-1.765-2.267-2.302l-.896 1.788c.547.273.994.816 1.467 1.573.249.399.426.722.68 1.143.229.376.49.78.797 1.118l1.48-1.344zm-1.733.794c.47 3.823.113 9.4-2.016 13.858-1.058 2.215-2.534 4.116-4.527 5.411-1.983 1.289-4.543 2.022-7.855 1.801l-.133 1.996c3.697.247 6.696-.571 9.078-2.12 2.373-1.543 4.066-3.765 5.242-6.226 2.338-4.895 2.699-10.88 2.196-14.964l-1.985.244zM54.642 70.24c-4.47-.28-7.002-1.662-8.629-3.29-1.679-1.68-2.47-3.668-3.39-5.512l-1.79.894c.832 1.663 1.794 4.06 3.766 6.033 2.025 2.026 5.043 3.566 9.919 3.871l.124-1.996zm-22.44-12.817c-.04-2.366.47-5.733 2.084-8.47 1.58-2.68 4.217-4.774 8.61-4.774v-2c-5.19 0-8.44 2.549-10.332 5.757-1.858 3.15-2.405 6.912-2.361 9.52l2-.034zm10.42 4.015c-.403-.807-.686-1.735-1.096-2.814-.38-1.002-.868-2.117-1.661-2.94-.852-.883-2.004-1.379-3.53-1.221-1.45.15-3.196.884-5.362 2.29l1.09 1.677c2.063-1.34 3.491-1.876 4.477-1.978.911-.094 1.458.178 1.885.62.486.505.857 1.276 1.232 2.263.345.91.714 2.072 1.177 2.997l1.789-.894zm19.955-17.254c-.358-2.15-.176-3.675.243-4.726l-1.857-.742c-.593 1.485-.758 3.401-.36 5.796l1.974-.328zm.243-4.726c.832-2.08 2.779-2.641 4.416-2.313l.392-1.962c-2.311-.462-5.382.323-6.665 3.533l1.857.742zm-.293-1.143c-.775-.638-1.706-1.627-2.128-2.539-.209-.45-.24-.77-.194-.976.036-.159.151-.4.633-.648l-.919-1.777c-.885.458-1.47 1.129-1.664 1.982-.184.806.024 1.6.33 2.26.604 1.306 1.797 2.523 2.672 3.242l1.27-1.544zm-2.056-4.074c1.36 0 2.153.013 2.944-.288.387-.146.748-.356 1.152-.604.425-.261.903-.569 1.627-1.004l-1.03-1.715c-.727.437-1.268.784-1.644 1.015-.398.244-.62.365-.814.438-.37.14-.73.158-2.235.158v2zm6.718 2.893c.143.036.276.084.403.144l.848-1.812a4.214 4.214 0 00-.765-.272l-.486 1.94zm.403.144c.317.148.693.405 1.148.768.455.364.922.777 1.457 1.232 1.02.871 2.255 1.875 3.623 2.386l.7-1.874c-.996-.371-1.986-1.147-3.025-2.033-.496-.423-1.018-.884-1.507-1.274-.49-.39-1.013-.766-1.548-1.017l-.848 1.812zm-1.398-4.933c.204-.122.314-.142.346-.144.013-.002.011 0 0-.002a.079.079 0 01-.018-.007l-.002-.001c.023.015.174.157.315.655.267.944.28 2.371.185 3.438l1.992.176c.101-1.146.114-2.862-.252-4.158-.176-.622-.5-1.374-1.164-1.797-.78-.497-1.658-.339-2.431.125l1.03 1.715zM53.58 71.238V76.5h2v-5.26h-2zm-2.642 6.74c1.294-.647 5.071-1.467 8.929 1.107l1.11-1.664c-4.555-3.038-9.112-2.143-10.934-1.231l.895 1.788zm-4.324-19.307c.347 1.131 1.131 2.752 2.209 4.218 1.064 1.447 2.526 2.896 4.285 3.456l.607-1.905c-1.162-.37-2.31-1.415-3.28-2.736-.958-1.302-1.634-2.723-1.91-3.62l-1.911.587zm6.494 7.674c4.562 1.454 7.721-1.114 8.605-2L60.3 62.933c-.674.674-3.08 2.624-6.584 1.508l-.607 1.905zm7.73-32.193a.808.808 0 01-.367.09v-2c-.185 0-.377.043-.552.133l.919 1.777zm9.429 8.374a1.212 1.212 0 00.047 1.711l1.378-1.45a.788.788 0 01.024 1.117l-1.45-1.378zM51.229 51.92c.092.592.62 1.058 1.266 1.014l-.138-1.996a.803.803 0 01.848.674l-1.976.308zm23.324-9.797c.606-.24.78-.82.767-1.2-.013-.378-.221-.917-.8-1.133l-.7 1.874a.752.752 0 01-.499-.67.768.768 0 01.495-.731l.737 1.86zm-44.35 15.333c.017 1.075 1.185 1.413 1.86.974l-1.09-1.677a.788.788 0 01.765-.052c.24.113.459.373.464.721l-2 .034z" fill="#20286A"/><circle cx="67.33" cy="40.443" r=".84" fill="#20286A"/></svg>