<svg version="1.2" xmlns="http://www.w3.org/2000/svg" viewBox="0 0 108 108" width="108" height="108">
	<title>livraison-footer-svg</title>
	<style>
		.s0 { fill: #ffffff } 
		.s1 { fill: #00a0de } 
		.s2 { fill: #20286a } 
		.s3 { fill: none;stroke: #20286a;stroke-width: 1.5 } 
		.s4 { fill: none;stroke: #20286a;stroke-width: .8 } 
		.s5 { fill: #213a8f } 
	</style>
	<path id="Layer" class="s0" d="m54 108c-29.9 0-54-24.1-54-54 0-29.9 24.1-54 54-54 29.9 0 54 24.1 54 54 0 29.9-24.1 54-54 54z"/>
	<path id="Layer" fill-rule="evenodd" class="s1" d="m88.6 54.2c0 18.2-15.1 33-33.7 33-15.5 0-28.6-10.2-32.5-24.2l-3.1 0.9c4.3 15.2 18.6 26.5 35.6 26.5 20.4 0 36.9-16.2 36.9-36.2q0-3.5-0.6-6.7l-3.1 0.8q0.5 2.9 0.5 5.9z"/>
	<path id="Layer" fill-rule="evenodd" class="s2" d="m87.3 45c-4.1-13.7-17-23.8-32.4-23.8-18.6 0-33.7 14.8-33.7 33q0 3.2 0.6 6.3l-3.1 0.8q-0.2-0.8-0.4-1.7-0.1-0.9-0.2-1.8-0.1-0.9-0.1-1.8-0.1-0.9-0.1-1.8c0-20 16.6-36.1 37-36.1 16.8 0 31.1 11 35.5 26.1z"/>
	<path id="Layer" class="s3" d="m36 60.8v2.2q0 0.2 0.1 0.4 0.1 0.2 0.2 0.3 0.1 0.2 0.3 0.3 0.2 0 0.4 0h3.9"/>
	<path id="Layer" class="s3" d="m36 60.8h3.3c0 0 2.5-3.3 5.7-3.3 3.3 0 5.8 3.3 5.8 3.3h11.5"/>
	<path id="Layer" class="s3" d="m36 60.8v-22q0-0.2 0.1-0.4 0.1-0.2 0.2-0.3 0.1-0.2 0.3-0.3 0.2 0 0.4 0h24.3q0.2 0 0.4 0 0.1 0.1 0.3 0.3 0.1 0.1 0.2 0.3 0.1 0.2 0.1 0.4v6.4"/>
	<path id="Layer" class="s3" d="m77.1 60.8v-6.4q0 0 0-0.1 0-0.1-0.1-0.1 0-0.1 0-0.1 0-0.1 0-0.1l-3.8-8.3q0-0.1-0.1-0.2-0.1-0.1-0.2-0.2-0.2-0.1-0.3-0.1-0.1 0-0.3 0h-10"/>
	<path id="Layer" class="s3" d="m77.1 60.8h-1.7c-0.8-1.1-3.1-3.3-5.7-3.3-2.7 0-5 2.2-5.8 3.3h-1.6"/>
	<path id="Layer" class="s3" d="m77.1 60.8v2.2q0 0.2-0.1 0.4-0.1 0.2-0.2 0.3-0.2 0.2-0.4 0.3-0.1 0-0.3 0h-2.3"/>
	<path id="Layer" class="s3" d="m62.3 45.2v15.6"/>
	<path id="Layer" class="s3" d="m49.1 64h16.5"/>
	<path id="Layer" fill-rule="evenodd" class="s3" d="m71.4 47.7l3.1 6.2q0 0 0 0.1 0 0.1-0.1 0.1 0 0 0 0.1-0.1 0-0.1 0h-9.4q0 0 0 0-0.1 0-0.1-0.1 0 0 0 0-0.1-0.1-0.1-0.1v-6.2c0-0.1 0.1-0.2 0.2-0.2h6.3q0 0 0 0 0.1 0 0.1 0 0 0.1 0 0.1 0.1 0 0.1 0z"/>
	<path id="Layer" class="s3" d="m45 68.2c-2.3 0-4.1-1.8-4.1-4.2 0-2.3 1.8-4.1 4.1-4.1 2.4 0 4.2 1.8 4.2 4.1 0 2.4-1.8 4.2-4.2 4.2z"/>
	<path id="Layer" class="s4" d="m45.2 65.3c-0.7 0-1.3-0.6-1.3-1.3 0-0.6 0.6-1.2 1.3-1.2 0.6 0 1.2 0.6 1.2 1.2 0 0.7-0.6 1.3-1.2 1.3z"/>
	<path id="Layer" class="s4" d="m69.8 65.3c-0.7 0-1.3-0.6-1.3-1.3 0-0.6 0.6-1.2 1.3-1.2 0.7 0 1.2 0.6 1.2 1.2 0 0.7-0.5 1.3-1.2 1.3z"/>
	<path id="Layer" class="s3" d="m69.7 68.2c-2.3 0-4.2-1.8-4.2-4.2 0-2.3 1.9-4.1 4.2-4.1 2.3 0 4.1 1.8 4.1 4.1 0 2.4-1.8 4.2-4.1 4.2z"/>
	<path id="Layer" class="s1" d="m51 45.1l-1.9 3.1 1.5 2.4 0.6-0.8v4.4h3v-9.1z"/>
	<path id="Layer" fill-rule="evenodd" class="s2" d="m47.6 50.6l-0.5-0.8v4.4h-3v-9.1h3.2l1.8 3.1zm-0.5-8.1c0 0.9-0.8 1.6-1.7 1.5-0.4 0-0.7-0.2-0.9-0.5-0.3-0.3-0.4-0.7-0.4-1.1 0-0.3 0.2-0.7 0.5-1 0.3-0.2 0.6-0.4 1-0.4 0.8 0 1.5 0.7 1.5 1.5z"/>
	<path id="Layer" class="s1" d="m54.2 42.5c0 0.9-0.7 1.5-1.5 1.5-0.8 0-1.5-0.6-1.5-1.5 0-0.8 0.7-1.4 1.5-1.4 0.8 0 1.5 0.6 1.5 1.4z"/>
	<path id="Layer" class="s5" d="m49.1 48.2l-1.5 2.4 1.3 1.9 0.2 0.4 0.3-0.4 1.2-1.9z"/>
	<path id="Forme 1" class="s0" d="m41 40h15v16h-15z"/>
	<path id="Forme 2" class="s5" d="m24-36h1v1h-1z"/>
</svg>