<svg width="66" height="66" viewBox="0 0 66 66" fill="none" xmlns="http://www.w3.org/2000/svg"><circle cx="32.884" cy="32.884" r="32.884" fill="#fff"/><path fill-rule="evenodd" clip-rule="evenodd" d="M54.044 33.01c0 11.1-9.198 20.098-20.544 20.098-9.445 0-17.401-6.235-19.802-14.727l-1.888.503c2.627 9.305 11.343 16.138 21.69 16.138 12.426 0 22.5-9.855 22.5-22.011 0-1.404-.134-2.776-.39-4.107l-1.895.506c.216 1.168.328 2.372.328 3.6z" fill="#00A0DE"/><path fill-rule="evenodd" clip-rule="evenodd" d="M53.233 27.404c-2.48-8.37-10.376-14.49-19.733-14.49-11.346 0-20.544 8.998-20.544 20.097 0 1.311.129 2.593.374 3.834l-1.893.505A21.653 21.653 0 0111 33.01C11 20.856 21.074 11 33.5 11c10.26 0 18.915 6.717 21.622 15.9l-1.889.504z" fill="#20286A"/><circle cx="37.227" cy="25.773" r="4.273" stroke="#20286A"/><path d="M20.646 36.266a.6.6 0 00.708.97l-.708-.97zm9.989-4.637l-.032.6.032-.6zm7.858 3.713l-.42-.43.42.43zm5.027-2.305l.25.546-.25-.546zm1.277 2.049l.347.49-.347-.49zm-18.225 3.97v-.6a.6.6 0 00-.366.123l.366.476zm-4.197 2.468a.6.6 0 10.732.952l-.732-.952zm-1.021-4.289a59.065 59.065 0 014.931-3.22c.922-.53 1.816-.997 2.591-1.322.8-.336 1.387-.483 1.727-.465l.063-1.198c-.634-.034-1.44.215-2.254.557-.84.352-1.782.845-2.726 1.388a60.254 60.254 0 00-5.04 3.29l.708.97zm9.25-5.007c1.133.06 1.968.326 2.682.588.347.128.71.272 1.037.375.337.107.694.19 1.071.19v-1.2c-.203 0-.427-.044-.71-.134-.292-.092-.59-.213-.984-.357-.766-.282-1.73-.592-3.034-.66l-.063 1.198zm4.79 1.153c.303 0 .724-.034 1.06-.048.37-.016.716-.013 1.012.04.298.052.487.144.602.26.101.104.209.292.209.685h1.2c0-.632-.183-1.148-.553-1.525-.357-.364-.821-.527-1.25-.603-.428-.075-.88-.073-1.271-.056-.427.018-.731.047-1.009.047v1.2zm2.883.937c0 .317-.089.483-.203.595l.838.858c.387-.377.565-.875.565-1.453h-1.2zm-.203.595c-.12.116-.325.23-.67.316-.343.087-.78.137-1.317.162-1.091.05-2.432-.009-4.06-.009v1.2c1.548 0 2.992.059 4.115.008.57-.027 1.1-.082 1.556-.197.455-.115.886-.301 1.214-.622l-.838-.858zm.669.975l5.027-2.305-.5-1.091-5.027 2.305.5 1.09zm5.027-2.305c.208-.096.346-.076.438-.038a.632.632 0 01.298.3c.185.357.083.653-.056.752l.694.978c.813-.576.77-1.625.426-2.284a1.826 1.826 0 00-.896-.852c-.427-.18-.916-.171-1.405.053l.501 1.09zm.68 1.014c-.808.572-2.24 1.56-3.537 2.403-.65.422-1.258.803-1.733 1.077a8.526 8.526 0 01-.582.312 1.722 1.722 0 01-.158.067c-.047.016-.017 0 .053 0v1.2c.138 0 .264-.04.338-.066.089-.03.183-.07.278-.115.19-.09.419-.214.67-.358.503-.29 1.132-.685 1.788-1.111 1.313-.854 2.76-1.85 3.577-2.43l-.694-.98zm-5.957 3.858h-.003-.003-.003-.003-.007H26.573v1.2H38.493v-1.2zm-12.287.125l-3.83 2.944.73.952 3.832-2.945-.732-.951zM37.344 27.362c-.61 0-1.095-.314-1.311-.81h1.636v-.399h-1.744c-.006-.062-.012-.125-.012-.193 0-.069.006-.132.012-.194h1.744v-.4h-1.636c.216-.495.701-.809 1.31-.809.417 0 .776.154 1.067.468l.473-.45c-.365-.434-.924-.667-1.579-.667-1.009 0-1.807.587-2.052 1.459h-.65v.399h.576c-.006.063-.006.125-.006.194 0 .068 0 .13.006.193h-.576v.4h.65c.245.871 1.043 1.459 2.052 1.459.655 0 1.214-.234 1.579-.667l-.473-.456c-.29.319-.65.473-1.066.473z" fill="#20286A"/></svg>